<svg width="122" height="122" viewBox="0 0 122 122" fill="none" xmlns="http://www.w3.org/2000/svg">
<g clip-path="url(#clip0_805_17979)">
<rect width="122" height="122" rx="61" fill="#E6E6E6"/>
<path fill-rule="evenodd" clip-rule="evenodd" d="M20.0494 122.62C19.7408 125.451 19.0415 128.569 20.3744 131.24C19.535 131.278 20.2159 131.521 20.669 131.604C20.9276 131.805 21.2753 131.884 21.6022 131.856C23.2996 132.215 25.0519 132.345 26.7754 132.548C48.2939 134.336 69.9567 133.861 91.5154 133.091C92.2166 133.06 92.687 132.551 92.7407 131.865C93.5309 121.765 93.9241 111.634 93.904 101.504C93.553 97.9438 96.2427 99.333 94.8079 94.6418C93.6544 89.6937 91.9472 84.8774 89.7702 80.2882C88.2653 77.3018 86.8474 74.1594 84.5538 71.683C83.829 71.5828 83.212 70.8626 82.5994 70.4604C81.9791 70.3395 81.5193 69.8125 80.8906 69.6505C79.6925 69.3387 77.0113 68.6756 75.9909 69.4731C75.9506 69.4621 75.9098 69.4527 75.8695 69.4412C75.6698 69.6628 75.3954 69.4966 75.2465 69.2976C74.7366 68.9016 72.5082 68.8609 72.2553 68.2532C70.9369 67.0568 70.5841 64.5388 70.5841 63.0657C70.0911 62.5116 70.057 62.6145 69.3878 62.3216C68.7317 61.4937 67.939 60.7725 67.0544 60.204C62.0756 56.9337 54.8508 60.3798 53.6852 66.0641C51.8428 67.5235 49.9463 69.006 47.6896 69.7664C46.5883 69.1997 45.3336 69.0188 44.1648 69.0177C43.2935 68.986 42.0895 68.482 41.5233 69.3993C31.9973 72.5189 26.2481 81.5922 22.1601 90.1891C21.587 91.4131 20.9015 92.6947 21.0769 94.0893C21.1974 95.7594 23.0093 96.7535 22.6669 98.5234C22.1692 103.392 21.6031 108.256 21.0851 113.123C20.7398 116.289 20.3946 119.455 20.0494 122.62Z" fill="white"/>
<path fill-rule="evenodd" clip-rule="evenodd" d="M89.7388 99.3941C89.1229 99.6172 88.2596 99.8346 87.8191 100.339C87.7684 99.8689 87.7171 99.3993 87.6655 98.9296C88.9561 98.899 90.2495 98.8879 91.5408 98.8518C90.9313 99.0009 90.3289 99.1805 89.7388 99.3941M86.9033 128.938C86.4592 128.942 86.0136 128.973 85.5697 128.99C84.7148 129.024 83.8599 129.056 83.0049 129.088C81.2608 129.154 79.5167 129.217 77.7724 129.277C74.3182 129.398 70.8635 129.509 67.4086 129.61C60.4988 129.814 53.5856 129.937 46.6767 130.169C44.76 130.234 42.8434 130.284 40.9285 130.388C39.9361 130.442 38.9392 130.489 37.9516 130.604C37.1184 130.701 36.2972 130.864 35.4687 130.986C35.5242 129.906 35.5763 128.826 35.6304 127.746C35.6817 126.724 35.7295 125.703 35.777 124.681C39.0111 124.85 42.249 124.918 45.4875 124.947C48.913 124.978 52.3376 125.063 55.7633 125.07C62.5452 125.083 69.3278 124.998 76.1095 124.93C78.0276 124.91 79.9458 124.891 81.864 124.872C82.823 124.862 83.7821 124.852 84.7411 124.843C85.2199 124.838 85.7015 124.848 86.1798 124.828C86.6903 124.807 87.0003 124.662 87.3709 124.318C87.5685 124.135 87.5768 123.762 87.3709 123.58C87.0735 123.317 86.7975 123.116 86.3853 123.086C85.9806 123.057 85.5582 123.097 85.1522 123.102C84.2616 123.114 83.3711 123.126 82.4805 123.138C80.7678 123.16 79.0552 123.183 77.3426 123.205C73.9172 123.25 70.4919 123.296 67.0667 123.348C63.7098 123.4 60.3526 123.438 56.9964 123.522C53.5695 123.609 50.1466 123.764 46.7205 123.875C43.0737 123.992 39.4288 124.132 35.7902 124.405C35.8777 122.511 35.9582 120.617 36.034 118.722C43.2586 119.115 50.4882 119.395 57.7249 119.408C65.2643 119.421 72.8032 119.292 80.3398 119.095C81.4019 119.067 82.4639 119.039 83.5257 119.006C84.0738 118.988 84.6218 118.972 85.1699 118.953C85.5728 118.938 85.9869 118.921 86.3511 118.728C87.0699 118.348 87.1939 117.237 86.3411 116.933C85.8749 116.767 85.3803 116.929 85.2669 117.35C85.2321 117.353 85.1989 117.356 85.1699 117.357C84.7589 117.373 84.3477 117.384 83.9368 117.397C83.0461 117.425 82.1555 117.454 81.2648 117.482C79.6205 117.534 77.9761 117.581 76.3316 117.625C72.9741 117.714 69.6162 117.786 66.2579 117.842C59.6091 117.953 52.9608 118.056 46.3128 118.208C42.8893 118.286 39.4668 118.388 36.0437 118.474C36.1255 116.415 36.2027 114.355 36.2723 112.295C36.2805 112.054 36.2893 111.813 36.2981 111.571C36.7886 111.679 37.2909 111.739 37.7907 111.809C38.6578 111.932 39.5277 112.023 40.3985 112.115C42.0394 112.288 43.6857 112.394 45.3327 112.485C48.6905 112.671 52.0493 112.801 55.4106 112.904C62.0597 113.106 68.7171 113.15 75.3689 113.128C78.981 113.115 82.615 113.163 86.2253 113.005C86.4478 113.066 86.6771 113.06 86.8989 112.987C87.0809 116.207 87.2732 119.427 87.4622 122.646C87.5897 124.818 87.7022 126.998 87.8588 129.171C87.5529 129.02 87.2714 128.935 86.9033 128.938M24.3089 96.2246C23.6754 95.9146 22.9768 95.6317 22.4176 95.1925C21.8064 94.7123 21.6562 94.1486 21.8441 93.395C21.8581 93.3387 21.8746 93.2827 21.8892 93.2266C26.3937 93.2376 30.8868 93.0393 35.3893 92.9323C39.9638 92.8237 44.5366 92.7325 49.1123 92.7067C58.2377 92.6553 67.3619 92.8612 76.4829 93.1175C79.7678 93.2097 83.0525 93.3007 86.3374 93.3904C86.2624 94.1916 86.2913 95.0124 86.2743 95.808C86.2594 96.5067 86.2633 97.2065 86.2737 97.9062C84.5552 97.902 82.8372 97.8649 81.1186 97.8455C76.8638 97.7975 72.6113 97.9197 68.3575 98.0171C59.8503 98.2118 51.3409 98.365 42.8354 98.6213C40.5252 98.6908 38.2003 98.7274 35.8795 98.8263C35.7997 98.4488 35.7112 98.0732 35.6113 97.7C35.4525 97.1072 35.2733 96.4979 34.7985 96.086C34.7757 96.0661 34.7442 96.0748 34.734 96.103C34.5537 96.603 34.5992 97.1119 34.652 97.6358C34.6938 98.0496 34.722 98.4645 34.743 98.88C33.2999 98.9559 31.8598 99.0626 30.4272 99.2226C30.0176 99.0201 29.6078 98.8181 29.1974 98.6171C27.5681 97.8191 25.9383 97.0221 24.3089 96.2246M76.6037 111.11C73.2427 111.138 69.8816 111.14 66.5208 111.119C59.8682 111.076 53.2177 110.913 46.5665 110.78C44.7154 110.744 42.8667 110.707 41.0153 110.707C40.0568 110.707 39.095 110.714 38.1376 110.755C37.535 110.781 36.924 110.785 36.3242 110.858C36.3965 108.919 36.4719 106.979 36.4695 105.039C42.8148 106.001 49.2283 106.265 55.6363 106.454C62.1283 106.645 68.6219 106.745 75.1167 106.754C76.9624 106.757 78.8082 106.753 80.6539 106.742C81.5425 106.737 82.4312 106.73 83.3198 106.722C83.7975 106.717 84.278 106.727 84.7552 106.707C85.2599 106.685 85.5648 106.566 85.9173 106.207C86.0977 106.023 86.1069 105.706 85.9173 105.523C85.2881 104.916 84.5478 105.048 83.7299 105.058C82.9097 105.068 82.0894 105.077 81.2691 105.084C79.6286 105.099 77.9879 105.109 76.3471 105.113C73.1343 105.121 69.9213 105.109 66.7086 105.076C60.2154 105.009 53.7237 104.865 47.2321 104.713C43.6432 104.629 40.0551 104.652 36.4691 104.826C36.4678 104.504 36.4648 104.182 36.4585 103.86C36.4349 102.64 36.3161 101.421 36.1303 100.215C37.8878 100.209 39.6451 100.171 41.3946 100.149C45.6487 100.094 49.9019 100.008 54.1556 99.923C58.375 99.8384 62.5944 99.7538 66.8138 99.6691C71.0306 99.5845 75.2603 99.5784 79.472 99.3507C81.7449 99.2277 84.0186 99.0607 86.2933 98.9729C86.2977 99.1817 86.3021 99.3907 86.3066 99.5995C86.3613 102.162 86.4614 104.722 86.5906 107.282C86.6527 108.512 86.7181 109.742 86.7855 110.971C86.7529 110.968 86.7196 110.966 86.6854 110.966C83.3271 110.944 79.9625 111.083 76.6037 111.11M23.4217 88.856C23.8064 87.8657 24.2244 86.882 24.6762 85.9117C26.5942 86.4533 28.6402 86.7327 30.6197 86.9186C32.7271 87.1168 34.8385 87.2281 36.9545 87.2713C41.1261 87.3565 45.2977 87.1585 49.4648 86.9863C58.036 86.6322 66.6064 86.3737 75.1856 86.357C77.5815 86.3523 79.9773 86.3634 82.373 86.3905C83.5708 86.404 84.7686 86.4202 85.9663 86.4407C86.5823 86.4513 87.1983 86.463 87.8143 86.4757C88.087 86.4812 88.363 86.5014 88.6355 86.4932C88.9999 86.4822 89.2661 86.3725 89.6044 86.2406C89.9927 86.0893 90.2218 85.4397 89.7372 85.2245C89.253 85.0093 88.8645 84.8833 88.3275 84.8716C87.7458 84.8592 87.164 84.8476 86.5824 84.8369C85.5215 84.8175 84.4606 84.8012 83.3997 84.788C81.2437 84.7611 79.0874 84.7497 76.9312 84.75C72.6871 84.7506 68.4431 84.8008 64.2003 84.9006C55.6823 85.101 47.1833 85.695 38.6684 85.9499C36.3215 86.0202 33.9701 86.0339 31.6231 85.9635C29.3497 85.8953 27.0813 85.7039 24.8107 85.6233C25.595 83.9694 26.4824 82.3587 27.4837 80.8272C31.2687 80.9602 35.0456 80.8618 38.8315 80.7465C40.8181 80.686 42.8047 80.6246 44.7911 80.5564C45.7844 80.5224 46.7776 80.4883 47.7709 80.4543C48.2504 80.4378 48.7299 80.4214 49.2094 80.405C49.7259 80.3873 50.2696 80.4207 50.7713 80.2848C50.8621 80.2602 50.9343 80.2076 50.9886 80.1406C52.3239 80.8278 53.7363 81.3699 55.1886 81.7716C58.3412 82.6436 61.7319 82.9708 64.9924 82.7024C67.609 82.4871 70.2167 81.8391 72.5172 80.5705C77.7127 81.049 82.9809 80.8242 88.1874 80.7901C88.6848 80.7869 88.8918 80.3311 88.8086 79.955C90.4795 83.5573 91.5863 87.4627 92.6224 91.2613C93.2661 93.6221 93.8387 95.9975 94.3838 98.3816C94.3611 98.3836 94.3386 98.3856 94.316 98.3878C94.3792 98.1266 94.2371 97.8188 93.8797 97.8105C91.7725 97.7622 89.6586 97.8832 87.5506 97.9027C87.4914 97.3753 87.4321 96.8477 87.3696 96.3205C87.2842 95.6022 87.1826 94.8857 87.0957 94.1676C87.0642 93.9071 87.035 93.6557 86.9992 93.4083C88.6681 93.4537 90.337 93.4996 92.006 93.5437C93.0891 93.5723 93.0871 91.8943 92.006 91.8613C82.8347 91.5803 73.6631 91.2965 64.4887 91.1407C55.3088 90.9848 46.0973 90.8887 36.9244 91.3595C31.9257 91.6159 26.9393 91.9588 22.0027 92.8048C22.3862 91.4662 22.921 90.1446 23.4217 88.856M31.2282 76.1053C31.3943 76.2299 31.4475 76.3085 31.6958 76.3521C31.965 76.3993 32.2418 76.4143 32.5135 76.4409C33.095 76.4979 33.6779 76.5191 34.2614 76.5468C35.4264 76.6021 36.5913 76.6607 37.7571 76.6962C40.0714 76.7665 42.4352 76.866 44.7485 76.763C45.3144 76.7379 45.5718 76.2711 45.5204 75.8457C45.9542 76.3832 46.4286 76.8877 46.9337 77.3477C47.746 78.0871 48.6227 78.7426 49.547 79.321C48.9474 79.343 48.3368 79.4182 47.7709 79.4425C46.8119 79.4835 45.8529 79.5247 44.8938 79.566C42.8729 79.6528 40.8522 79.746 38.8315 79.8405C35.0918 80.0153 31.3649 80.233 27.6395 80.5898C28.7034 78.9902 29.8953 77.4814 31.2282 76.1053M92.0945 83.8751C90.5144 79.5363 88.4773 75.0292 84.8113 72.0491C82.927 70.5173 80.8277 69.4576 78.4503 68.9557C78.3773 68.9402 78.3482 69.0441 78.4194 69.0676C82.5308 70.4169 85.5733 73.9874 87.6315 77.6466C88.0044 78.3096 88.35 78.9886 88.6768 79.6778C88.5704 79.548 88.4076 79.4617 88.1874 79.4654C83.3257 79.5471 78.4068 79.4647 73.556 79.9398C73.6798 79.8573 73.8036 79.7749 73.9251 79.6882C75.2502 78.7434 76.4425 77.5875 77.4281 76.2782C78.0218 76.4288 78.6468 76.4655 79.2525 76.5232C80.0609 76.6 80.8748 76.6352 81.6858 76.6788C82.4955 76.7222 83.3084 76.7263 84.119 76.7459C84.6762 76.7595 85.7652 76.852 85.7658 75.9994C85.7664 75.1459 84.6763 75.2363 84.119 75.2474C83.3083 75.2634 82.4959 75.2658 81.6858 75.3039C80.9093 75.3402 80.1281 75.3696 79.3538 75.4391C78.8815 75.4815 78.3956 75.5093 77.9207 75.5844C78.6935 74.431 79.3087 73.1747 79.7193 71.8495C79.7606 71.7162 79.7743 71.5916 79.7675 71.4762C79.9417 71.2923 80.0528 71.0403 80.0528 70.8095C80.0528 70.2606 79.6253 69.939 79.1256 69.8817C77.1477 69.6556 74.9686 69.3332 73.3747 68.0324C72.6554 67.4453 72.0768 66.7513 71.5322 66.0044C70.9204 65.165 70.691 64.1074 70.6886 63.0798C70.6885 63.0222 70.5929 63.0047 70.5841 63.0657C70.2846 65.149 70.7166 67.5272 72.2112 69.0881C73.6788 70.6206 75.6722 71.1947 77.6951 71.53C76.861 73.9132 75.4843 76.0066 73.5515 77.6528C71.3978 79.4872 68.6715 80.4682 65.8919 80.8385C62.8932 81.238 59.7502 81.0437 56.8013 80.3917C53.9605 79.7634 51.1816 78.6398 48.8695 76.8467C47.7031 75.942 46.63 74.8755 45.695 73.7342C44.9233 72.7922 44.3316 71.7417 43.6692 70.7326C46.1406 71.4105 49.1286 70.4845 51.1987 69.1765C52.4181 68.4062 53.4863 67.4446 54.3639 66.3005C54.7967 65.7363 55.1817 65.1406 55.4993 64.5038C55.6644 64.1725 55.8129 63.8317 55.9495 63.4877C56.0339 63.2753 56.1167 63.057 56.1167 62.8234C56.1162 62.6514 56.0729 62.4911 55.9867 62.3426C55.8096 62.1546 55.7743 62.1001 55.8809 62.1789C55.707 61.8227 55.2042 61.7322 54.8825 61.917C54.7626 61.986 54.4807 62.1196 54.342 62.3426C54.2483 62.4934 54.1979 62.6737 54.1379 62.8391C54.0431 63.1003 53.9476 63.3584 53.8287 63.6099C53.5524 64.194 53.221 64.7516 52.843 65.2757C52.1522 66.2336 51.2642 67.0999 50.2969 67.776C49.2815 68.4856 48.1871 69.0658 47.0001 69.4281C45.7465 69.8107 44.5056 69.925 43.2121 70.0651C43.1983 70.0459 43.1849 70.0266 43.1711 70.0076C43.1461 69.9731 43.0922 69.9843 43.09 70.0295C43.089 70.0512 43.0895 70.0728 43.0889 70.0944C42.9044 70.1809 42.8892 70.441 43.0947 70.5408C43.1708 71.7377 43.6872 72.9165 44.2498 73.9523C44.4841 74.3838 44.7489 74.8018 45.0357 75.2056C44.9508 75.1732 44.8555 75.1527 44.7485 75.1485C42.4344 75.0598 40.0712 75.1741 37.7571 75.2588C36.6254 75.3002 35.495 75.3637 34.3642 75.4243C33.7814 75.4555 33.1971 75.4754 32.6163 75.5357C32.3259 75.5659 32.0337 75.5897 31.7448 75.6332C31.7239 75.6364 31.7044 75.6397 31.6861 75.643C32.4008 74.9388 33.1541 74.2718 33.9494 73.6495C36.5584 71.6078 39.5549 69.9442 42.752 69.0395C42.7823 69.0309 42.7778 68.9791 42.7443 68.9826C36.3854 69.6331 31.0885 73.6418 27.3832 78.6751C25.3272 81.468 23.7678 84.5597 22.426 87.7479C21.7496 89.3549 21.1097 90.9905 20.5738 92.6503C20.3014 93.4937 20.1786 94.3885 20.5688 95.2161C20.8679 95.851 21.42 96.3228 21.9987 96.6977C22.0372 96.7227 22.0768 96.7458 22.1156 96.7703C21.5241 98.832 21.1278 100.948 20.7475 103.057C20.3345 105.348 19.9742 107.649 19.6647 109.956C19.0461 114.569 18.5722 119.191 18.3653 123.842C18.3081 125.128 18.2699 126.415 18.2532 127.702C18.2448 128.346 18.2485 128.99 18.2573 129.634C18.2673 130.355 18.1697 131.168 18.5365 131.811C19.0265 132.671 19.9782 132.375 20.3968 131.787C20.4029 131.795 20.4092 131.803 20.4153 131.811C20.4533 131.737 20.485 131.662 20.5121 131.588C20.5572 131.489 20.5866 131.385 20.5973 131.279C20.6762 130.88 20.6465 130.475 20.6433 130.041C20.6387 129.431 20.6422 128.821 20.6439 128.211C20.6473 127.059 20.6604 125.907 20.6932 124.755C20.7589 122.453 20.8871 120.152 21.0625 117.855C21.411 113.292 21.925 108.75 22.3649 104.196C22.5889 101.878 22.859 99.5531 22.9056 97.222C23.4486 97.508 24.0089 97.7672 24.5509 98.0432C25.5566 98.5553 26.5621 99.0674 27.5676 99.5795C28.5428 100.076 29.5195 100.57 30.4965 101.063C31.4817 101.56 32.4603 102.217 33.5688 102.34C34.1613 102.405 34.3757 101.606 34.0266 101.234C33.5707 100.747 32.9653 100.444 32.3567 100.161C33.1653 100.19 33.975 100.206 34.785 100.212C34.7962 101.232 34.7602 102.254 34.709 103.271C34.5833 105.766 34.4084 108.257 34.2428 110.75C33.8987 115.932 33.5656 121.117 33.3057 126.304C33.242 127.575 33.1783 128.845 33.1146 130.115C33.0837 130.733 33.0407 131.351 33.0232 131.969C33.0036 132.663 33.0206 133.532 33.6622 133.96C34.1154 134.263 34.6031 134.12 34.9434 133.704C35.3983 133.148 35.3976 132.343 35.4342 131.66C35.4427 131.503 35.4502 131.345 35.4584 131.187C36.1532 131.277 36.8431 131.402 37.5409 131.47C38.3934 131.553 39.2511 131.602 40.1073 131.624C41.853 131.669 43.596 131.685 45.3423 131.685C48.7982 131.685 52.2537 131.626 55.7091 131.57C62.62 131.459 69.5301 131.265 76.4386 131.05C78.3539 130.991 80.269 130.929 82.1842 130.863C83.1759 130.83 84.1676 130.795 85.1594 130.76C86.0981 130.726 87.1236 130.848 87.9499 130.36C87.9738 130.657 87.9981 130.954 88.0242 131.25C88.0738 131.812 88.4686 132.295 89.0681 132.295C89.6314 132.295 90.1156 131.817 90.112 131.25C89.9015 126.126 89.4461 121.002 89.0854 115.886C88.7541 111.187 88.4436 106.482 87.9699 101.794C88.1043 101.881 88.2685 101.935 88.4623 101.936C89.0812 101.938 89.6989 101.554 90.2779 101.35C90.8622 101.144 91.456 100.966 92.0579 100.82C92.4142 100.734 92.772 100.661 93.1309 100.599C93.0875 101.333 93.0986 102.073 93.085 102.803C93.0641 103.927 93.0292 105.05 93.0019 106.173C92.9482 108.385 92.9291 110.598 92.8868 112.811C92.8017 117.273 92.6615 121.731 92.4231 126.187C92.3576 127.411 92.284 128.635 92.2023 129.859C92.1592 130.504 92.1138 131.15 92.0661 131.795C92.0194 132.43 91.9101 133.104 92.1488 133.712C92.1564 133.707 92.1639 133.703 92.1714 133.698C92.3379 134.222 93.0698 134.473 93.4156 133.877C93.9545 132.948 93.8303 131.617 93.8922 130.572C93.9587 129.451 94.0183 128.329 94.071 127.207C94.1766 124.963 94.2498 122.718 94.2923 120.471C94.3772 115.977 94.3628 111.477 94.0881 106.99C94.013 105.763 93.9078 104.538 93.7999 103.314C93.719 102.396 93.6743 101.453 93.5312 100.535C94.231 100.432 94.9363 100.372 95.6484 100.354C96.3377 100.337 96.7821 99.7152 96.636 99.0571C95.4919 93.9019 93.9003 88.834 92.0945 83.8751" fill="black"/>
<path fill-rule="evenodd" clip-rule="evenodd" d="M81.5078 43.3816C81.4667 41.0711 81.4214 38.7143 81.078 36.4263C80.7424 34.1894 79.8189 32.1675 78.232 30.5432C74.8614 27.0929 69.9756 26.2501 65.4277 25.4778L57.6521 24.1573C55.2799 23.7546 52.7491 23.1108 50.3524 23.6819C49.1714 23.9634 48.1685 24.6173 47.2518 25.391C46.3683 26.1367 45.4183 26.9374 44.8196 27.9407C44.2199 28.9453 44.0136 30.1198 43.8186 31.2561C43.5987 32.5371 43.4279 33.8282 43.3065 35.1224C43.0633 37.7153 43.0301 40.3277 43.2065 42.926C43.292 44.1863 43.428 45.4429 43.6016 46.694C43.6877 47.3144 43.785 47.9332 43.8949 48.5499C43.9273 48.7317 43.9519 48.933 43.9851 49.1364C43.7399 49.8343 43.6005 50.557 43.6117 51.2766C43.6448 53.3963 45.4333 54.7308 47.2362 55.4473C48.2817 55.8627 49.3746 56.145 50.4018 56.6092C51.4824 57.0973 52.2179 57.8887 52.9567 58.7915C54.3657 60.5133 55.9558 62.0608 57.7715 63.3519C61.621 66.0893 66.4967 67.384 71.1675 66.4013C72.2882 66.1655 73.4187 65.7993 74.4261 65.2477C75.4897 64.6652 76.2894 63.8212 76.961 62.8234C78.208 60.9709 79.1023 58.8849 79.7788 56.7622C80.4688 54.5969 80.9587 52.4277 81.2258 50.1699C81.492 47.9194 81.5481 45.646 81.5078 43.3816V43.3816Z" fill="white"/>
<path fill-rule="evenodd" clip-rule="evenodd" d="M56.6951 16.1087C59.9128 15.666 64.354 17.1051 65.9564 20.0068C73.607 18.2025 83.2563 18.1434 89.5619 24.1499C96.1415 31.2749 87.8771 40.6693 82.3971 42.7874C82.7961 44.7271 82.174 57.1538 77.7723 62.6968C74.2789 67.3933 66.1437 69.5608 62.3792 63.9512L62.3499 63.9049C61.9465 63.257 62.2939 63.2778 62.7079 63.7597C66.3941 67.0026 71.406 67.058 75.2682 63.6357C82.5065 57.3803 81.7602 42.0425 78.3159 33.1694C68.5081 32.0918 58.0071 35.0656 51.233 42.4512L51.6911 45.21C51.7691 45.68 51.8578 46.1496 51.9254 46.6213C51.9687 46.9234 51.9736 47.224 51.7643 47.4686C51.0732 48.2762 49.9085 47.0627 48.9502 46.58C48.6673 46.5402 48.3839 46.5248 48.1059 46.5444C43.5018 47.1377 44.4089 56.0726 49.4692 54.5064C49.8944 54.2415 50.2597 54.3223 50.4246 54.7068C51.6308 55.8121 52.4261 57.7833 54.43 59.6818C55.1371 60.394 55.7805 60.9898 56.5758 61.5611C57.0429 62.0337 58.4525 62.5156 58.0057 63.3243C57.1607 65.1645 52.1778 59.3841 51.2968 57.7855C48.5366 58.8759 45.4777 58.5055 42.6172 58.239C27.5266 57.4541 29.5412 41.5408 41.9105 31.494C44.2389 29.7792 46.8078 28.3803 49.4782 27.3038C49.8427 27.1569 49.6835 26.5581 49.3137 26.7071C47.5468 27.4195 45.8244 28.2674 44.1824 29.2487L44.1799 28.662C44.1775 27.6738 44.193 26.645 44.3646 25.7421C44.4504 25.1165 44.5946 24.4482 44.8167 23.9455C45.0912 22.4043 49.392 17.1141 56.6951 16.1087ZM47.9045 48.5956C48.1375 48.3742 48.5725 48.6382 48.7799 48.6316C49.3104 48.7043 49.8143 48.9284 50.2073 49.205C50.4668 49.3504 50.6487 49.487 50.8007 49.6126L50.8048 49.6115C50.8037 49.6115 50.8022 49.6126 50.801 49.6129L50.8153 49.6226C51.0366 49.7799 51.8466 50.6657 51.3348 50.4275C51.2967 50.3779 51.2576 50.3302 51.2182 50.2835C51.214 50.2899 51.2081 50.2962 51.2011 50.3023L51.2299 50.345C51.6648 50.9995 50.9138 50.3099 50.7983 50.1267C50.7928 50.1312 50.7867 50.1342 50.7806 50.1374L50.931 50.3206C50.9521 50.3466 50.9686 50.3673 50.9823 50.3849L51.0141 50.4155C51.517 50.9101 51.5327 51.3551 50.9484 50.624C50.9714 50.6584 50.9899 50.6949 50.9924 50.7273L51.0271 50.7715C51.4858 51.3629 51.1127 51.1528 50.8847 50.9003L50.8656 50.8785L50.8695 50.8844C51.0816 51.2113 50.6608 50.9819 50.5865 50.8071L50.5833 50.7992C50.5023 50.7331 50.4525 50.6589 50.4354 50.6401L50.4322 50.637C50.0377 50.2327 49.466 49.8906 48.9803 49.7351C48.9098 49.7217 48.8386 49.711 48.7666 49.7034C48.4746 49.6382 48.1793 49.5935 47.8809 49.5694C47.8444 49.5651 47.8074 49.5382 47.7798 49.5036C47.3286 49.4884 47.4679 49.3034 47.6551 49.269L47.6583 49.2684L47.6212 49.2653C47.3317 49.237 47.1339 49.1331 47.4267 49.0693L47.4638 49.0619C47.4592 49.0548 47.4552 49.0477 47.4513 49.0406C47.2006 49.0131 47.3642 48.7692 47.5034 48.8282C47.4448 48.6367 47.7125 48.7323 47.7459 48.7038C47.7713 48.6756 47.803 48.6506 47.8212 48.6493C47.9019 48.5923 47.8628 48.5975 47.9045 48.5956ZM49.4387 45.4947L49.3799 45.5291C49.3324 45.5568 49.2835 45.5753 49.2344 45.5861C49.3037 45.6156 49.3722 45.6475 49.4399 45.6815C49.4388 45.6399 49.438 45.5983 49.438 45.5569L49.4387 45.4947Z" fill="black"/>
<path fill-rule="evenodd" clip-rule="evenodd" d="M72.3795 58.127C71.62 58.347 70.8048 58.3667 70.0306 58.1395C69.3285 57.9333 68.6075 57.4796 68.0907 56.8793C67.6316 56.346 67.3343 55.698 67.3459 55.0062C67.3473 54.9272 67.3755 54.8613 67.419 54.8101C67.4657 54.755 67.531 54.7171 67.601 54.7007C67.673 54.6838 67.749 54.6898 67.8138 54.7192C67.8725 54.7459 67.9227 54.7912 67.9541 54.8573C68.0335 54.9617 68.1126 55.0645 68.1921 55.1645C68.8307 55.9533 69.4491 56.5428 70.4093 56.7543C70.9303 56.869 71.4507 56.8181 71.9281 56.6431C72.4392 56.4557 72.9012 56.1262 73.2632 55.7045C73.4268 55.514 73.62 55.4362 73.8089 55.4349C74.0229 55.4334 74.2345 55.5329 74.3938 55.6919C74.5505 55.8482 74.6554 56.0606 74.6649 56.2828C74.6732 56.4779 74.6097 56.6816 74.4405 56.8633C73.8832 57.462 73.161 57.9006 72.3795 58.127ZM72.3561 48.2471C73.1346 48.7206 74.3209 49.8245 73.4833 50.9981C72.4975 52.0329 71.0781 50.8464 70.3786 50.3098C69.7301 49.8939 69.0014 50.9635 69.6031 51.4492C74.6574 55.1926 76.7085 48.3709 72.7498 47.6905C72.314 47.6155 72.1521 48.1007 72.3561 48.2471ZM65.0733 46.164C64.823 46.0039 64.5287 45.949 64.2025 46.0975C63.9475 46.2134 63.5004 46.6001 63.1892 47.1083C62.9764 47.456 62.8254 47.8639 62.8568 48.2888C62.8641 48.3875 62.8277 48.4602 62.7702 48.514C62.7248 48.5565 62.6592 48.5877 62.5822 48.5975C62.5168 48.6058 62.4436 48.5983 62.3841 48.5797C62.2708 48.5444 62.2109 48.4709 62.1883 48.4109C61.9705 47.8321 62.0643 47.1861 62.3085 46.6034C62.638 45.8169 63.2365 45.1582 63.6286 44.9458C64.2995 44.5822 65.091 44.5655 65.7629 44.9359C66.3348 45.2511 66.6924 45.7601 67.0481 46.2789C67.1237 46.3891 67.1988 46.4986 67.2763 46.6062C67.4318 46.8217 67.4472 47.0354 67.387 47.2187C67.3204 47.4217 67.1503 47.5931 66.9377 47.6827C66.7412 47.7656 66.5131 47.7773 66.3113 47.6921C66.1408 47.6202 65.9843 47.48 65.8853 47.242C65.7186 46.8413 65.4407 46.3991 65.0733 46.164V46.164ZM77.7818 47.0556C77.6104 47.1449 77.4763 47.1719 77.2862 47.1149C77.1811 47.0833 77.0772 47.0228 76.9959 46.9414C76.9152 46.8607 76.8571 46.7604 76.8345 46.6492C76.7789 46.3746 76.6287 46.1175 76.4147 45.95C76.2317 45.8068 76.0009 45.7309 75.7448 45.7737C75.4684 45.8198 75.2051 45.9971 75.0238 46.2062C74.9632 46.2761 74.9157 46.3556 74.8679 46.4345C74.7786 46.582 74.6917 46.7192 74.5685 46.8276C74.5218 46.8688 74.4514 46.8973 74.3832 46.8973C74.3555 46.8973 74.3274 46.8928 74.3006 46.8845C74.0256 46.6083 73.9727 46.3988 73.9815 46.191C73.9908 45.9731 74.0767 45.7524 74.2155 45.5466C74.541 45.0637 75.1592 44.6678 75.5763 44.5781C76.1475 44.4553 76.7148 44.6027 77.1696 44.9219C77.6376 45.2503 77.9843 45.7601 78.0925 46.3347C78.1185 46.4731 78.1074 46.6225 78.0547 46.752C78.0032 46.8786 77.9135 46.987 77.7818 47.0556ZM66.333 41.0156C65.9902 41.3497 65.5845 41.4015 65.1741 41.4475C64.946 41.4733 64.7639 41.4941 64.5848 41.5346C64.0923 41.6458 63.6056 41.8132 63.1615 42.0544C62.6973 42.3066 62.1914 42.6107 61.8274 43.0003C61.7409 43.093 61.6593 43.1902 61.5776 43.2877C61.5031 43.3766 61.4314 43.4622 61.3557 43.5447C61.2689 43.6395 61.1864 43.7388 61.1044 43.8379C61.0536 43.9215 61.0436 43.9421 61.0334 43.9635C61.018 43.9956 61.0001 44.0316 60.9797 44.0702C60.9517 44.1231 60.919 44.181 60.8847 44.2335C60.8276 44.3294 60.7969 44.3559 60.7705 44.3677C60.7265 44.3873 60.6849 44.3969 60.6445 44.3917C60.6066 44.3868 60.5709 44.3686 60.5356 44.3388C60.3596 44.19 60.3077 43.9459 60.313 43.6867C60.3211 43.2935 60.4661 42.8581 60.5998 42.5905C60.9105 41.9686 61.3415 41.3221 61.8598 40.8579C62.4512 40.3281 63.0982 39.927 63.8413 39.6506C64.3031 39.4788 64.8378 39.3211 65.3409 39.341C65.7031 39.3553 66.0488 39.463 66.3343 39.732C66.5096 39.8971 66.5938 40.1319 66.5938 40.3666C66.5938 40.6059 66.5064 40.8466 66.333 41.0156ZM78.479 44.0752C78.4572 44.111 78.427 44.1356 78.3934 44.1504C78.3582 44.1659 78.3189 44.1704 78.2812 44.164C78.2437 44.1577 78.208 44.1406 78.1797 44.1146C78.1526 44.0897 78.1319 44.0566 78.1227 44.0161C77.8951 43.0161 77.4531 42.2721 76.5099 41.7923C76.0459 41.5563 75.5124 41.4064 75.0073 41.2868C74.8605 41.2521 74.7054 41.2295 74.5492 41.2067C74.0597 41.1352 73.5667 41.0533 73.2476 40.6575C73.0553 40.4191 72.9746 40.1142 73.0202 39.8353C73.0632 39.5727 73.2166 39.332 73.4954 39.1877C74.1895 38.8287 75.0521 39.181 75.753 39.4811C75.805 39.5033 75.856 39.5252 75.906 39.5463C76.5914 39.8357 77.2166 40.2178 77.7305 40.7642C78.1383 41.1977 78.5161 41.8385 78.6682 42.4977C78.7948 43.0462 78.7651 43.6061 78.479 44.0752Z" fill="black"/>
<path fill-rule="evenodd" clip-rule="evenodd" d="M74.5397 59.7928C73.5795 58.9371 72.5033 57.2167 71.1239 58.578C70.7828 58.9626 70.6446 59.8248 70.1229 59.994C69.4301 60.2188 68.7435 59.4855 68.5074 58.9224C67.5413 55.7934 71.5348 54.9352 73.8097 55.4407C74.9211 55.8973 75.7397 57.7352 75.7892 58.6944C75.8212 59.339 75.2758 60.2869 74.5397 59.7928M81.7834 54.9701C81.774 54.9285 81.7609 54.891 81.7451 54.8569C81.3205 54.6963 80.9845 54.8601 80.7768 55.166C80.7836 55.242 80.8063 55.319 80.8207 55.3944C80.6604 55.7321 80.5159 56.1499 80.2988 56.4417C80.2559 56.445 80.2114 56.4405 80.1688 56.4281C76.5693 56.8041 78.3266 53.0366 74.6758 52.1008C71.8537 51.635 66.753 52.1685 65.4217 55.1071C64.3717 59.8007 59.0329 56.5302 57.2801 54.0892C55.4097 51.8677 54.2004 49.1531 53.0344 46.5189C52.788 45.9614 52.0189 46.3601 52.1026 46.8949C51.0248 49.0579 51.0606 51.6559 50.7937 54.0255C50.3397 58.7528 49.8973 65.3824 54.2879 68.2689C60.0086 74.7375 74.2937 77.0202 80.8918 71.0767C83.1758 66.1642 82.8943 60.1711 81.7834 54.9701" fill="black"/>
</g>
<defs>
<clipPath id="clip0_805_17979">
<rect width="122" height="122" rx="61" fill="white"/>
</clipPath>
</defs>
</svg>
