<svg width="41" height="36" viewBox="0 0 41 36" fill="none" xmlns="http://www.w3.org/2000/svg">
<path d="M0.25 32V10.7C0.25 9.86672 0.475333 9.11672 0.926 8.45005C1.37667 7.78338 1.98467 7.30005 2.75 7.00005L18.75 0.600049C19.2167 0.400049 19.7167 0.300049 20.25 0.300049C20.7833 0.300049 21.2833 0.400049 21.75 0.600049L37.75 7.00005C38.5167 7.30005 39.1253 7.78338 39.576 8.45005C40.0267 9.11672 40.2513 9.86672 40.25 10.7V32C40.25 33.1 39.8587 34.042 39.076 34.826C38.2933 35.6101 37.3513 36.0014 36.25 36H28.25V20H12.25V36H4.25C3.15 36 2.20867 35.6087 1.426 34.826C0.643333 34.0434 0.251333 33.1014 0.25 32ZM14.25 36V32H18.25V36H14.25ZM18.25 30V26H22.25V30H18.25ZM22.25 36V32H26.25V36H22.25Z" fill="#4AA946"/>
</svg>
