<svg width="29" height="34" viewBox="0 0 29 34" fill="none" xmlns="http://www.w3.org/2000/svg">
<path fill-rule="evenodd" clip-rule="evenodd" d="M1.922 1.172C0.75 2.344 0.75 4.228 0.75 8V26C0.75 29.772 0.75 31.656 1.922 32.828C3.094 34 4.978 34 8.75 34H20.75C24.522 34 26.406 34 27.578 32.828C28.75 31.656 28.75 29.772 28.75 26V8C28.75 4.228 28.75 2.344 27.578 1.172C26.406 -1.19209e-07 24.522 0 20.75 0H8.75C4.978 0 3.094 -1.19209e-07 1.922 1.172ZM8.75 8C8.21957 8 7.71086 8.21071 7.33579 8.58579C6.96071 8.96086 6.75 9.46957 6.75 10C6.75 10.5304 6.96071 11.0391 7.33579 11.4142C7.71086 11.7893 8.21957 12 8.75 12H20.75C21.2804 12 21.7891 11.7893 22.1642 11.4142C22.5393 11.0391 22.75 10.5304 22.75 10C22.75 9.46957 22.5393 8.96086 22.1642 8.58579C21.7891 8.21071 21.2804 8 20.75 8H8.75ZM8.75 16C8.21957 16 7.71086 16.2107 7.33579 16.5858C6.96071 16.9609 6.75 17.4696 6.75 18C6.75 18.5304 6.96071 19.0391 7.33579 19.4142C7.71086 19.7893 8.21957 20 8.75 20H20.75C21.2804 20 21.7891 19.7893 22.1642 19.4142C22.5393 19.0391 22.75 18.5304 22.75 18C22.75 17.4696 22.5393 16.9609 22.1642 16.5858C21.7891 16.2107 21.2804 16 20.75 16H8.75ZM8.75 24C8.21957 24 7.71086 24.2107 7.33579 24.5858C6.96071 24.9609 6.75 25.4696 6.75 26C6.75 26.5304 6.96071 27.0391 7.33579 27.4142C7.71086 27.7893 8.21957 28 8.75 28H16.75C17.2804 28 17.7891 27.7893 18.1642 27.4142C18.5393 27.0391 18.75 26.5304 18.75 26C18.75 25.4696 18.5393 24.9609 18.1642 24.5858C17.7891 24.2107 17.2804 24 16.75 24H8.75Z" fill="#4AA946"/>
</svg>
